<svg width="1400" height="900" viewBox="0 0 1400 900" fill="none" xmlns="http://www.w3.org/2000/svg">
  <defs>
    <linearGradient id="bg" x1="0" y1="0" x2="1400" y2="900" gradientUnits="userSpaceOnUse">
      <stop stop-color="#F7F9FC"/>
      <stop offset="1" stop-color="#F1F5F9"/>
    </linearGradient>
    <linearGradient id="violet" x1="0" y1="0" x2="1" y2="1">
      <stop stop-color="#4F46E5"/>
      <stop offset="1" stop-color="#7C3AED"/>
    </linearGradient>
    <filter id="shadow" x="-20" y="-20" width="1500" height="1000" filterUnits="userSpaceOnUse" color-interpolation-filters="sRGB">
      <feDropShadow dx="0" dy="18" stdDeviation="18" flood-color="#0F172A" flood-opacity="0.08"/>
    </filter>
  </defs>

  <rect width="1400" height="900" rx="28" fill="url(#bg)"/>

  <g filter="url(#shadow)">
    <rect x="24" y="24" width="246" height="140" rx="22" fill="url(#violet)"/>
    <rect x="286" y="24" width="246" height="140" rx="22" fill="url(#violet)"/>
    <rect x="548" y="24" width="246" height="140" rx="22" fill="url(#violet)"/>
    <rect x="810" y="24" width="246" height="140" rx="22" fill="url(#violet)"/>
    <rect x="1072" y="24" width="304" height="140" rx="22" fill="#10B981"/>

    <rect x="24" y="188" width="660" height="390" rx="24" fill="#FFFFFF"/>
    <rect x="716" y="188" width="660" height="390" rx="24" fill="#FFFFFF"/>
    <rect x="24" y="610" width="660" height="266" rx="24" fill="#FFFFFF"/>
    <rect x="716" y="610" width="660" height="266" rx="24" fill="#FFFFFF"/>
  </g>

  <text x="147" y="62" text-anchor="middle" fill="#C7D2FE" font-family="Segoe UI, Arial, sans-serif" font-size="22" font-weight="700">USD</text>
  <text x="147" y="108" text-anchor="middle" fill="#FFFFFF" font-family="Segoe UI, Arial, sans-serif" font-size="52" font-weight="800">$ 61,303.50</text>
  <text x="147" y="136" text-anchor="middle" fill="#DDD6FE" font-family="Segoe UI, Arial, sans-serif" font-size="20">602 Tickets</text>

  <text x="409" y="62" text-anchor="middle" fill="#C7D2FE" font-family="Segoe UI, Arial, sans-serif" font-size="22" font-weight="700">EUR</text>
  <text x="409" y="108" text-anchor="middle" fill="#FFFFFF" font-family="Segoe UI, Arial, sans-serif" font-size="52" font-weight="800">$ 3,553.50</text>
  <text x="409" y="136" text-anchor="middle" fill="#DDD6FE" font-family="Segoe UI, Arial, sans-serif" font-size="20">69 Tickets</text>

  <text x="671" y="62" text-anchor="middle" fill="#C7D2FE" font-family="Segoe UI, Arial, sans-serif" font-size="22" font-weight="700">EGP</text>
  <text x="671" y="108" text-anchor="middle" fill="#FFFFFF" font-family="Segoe UI, Arial, sans-serif" font-size="52" font-weight="800">0.00</text>
  <text x="671" y="136" text-anchor="middle" fill="#DDD6FE" font-family="Segoe UI, Arial, sans-serif" font-size="20">17 Tickets</text>

  <text x="933" y="62" text-anchor="middle" fill="#C7D2FE" font-family="Segoe UI, Arial, sans-serif" font-size="22" font-weight="700">EGP</text>
  <text x="933" y="108" text-anchor="middle" fill="#FFFFFF" font-family="Segoe UI, Arial, sans-serif" font-size="52" font-weight="800">105.00 ج.م</text>
  <text x="933" y="136" text-anchor="middle" fill="#DDD6FE" font-family="Segoe UI, Arial, sans-serif" font-size="20">2 Tickets</text>

  <text x="1224" y="62" text-anchor="middle" fill="#D1FAE5" font-family="Segoe UI, Arial, sans-serif" font-size="22" font-weight="700">vs Previous Period</text>
  <text x="1224" y="108" text-anchor="middle" fill="#FFFFFF" font-family="Segoe UI, Arial, sans-serif" font-size="52" font-weight="800">36.8%</text>
  <text x="1224" y="136" text-anchor="middle" fill="#A7F3D0" font-family="Segoe UI, Arial, sans-serif" font-size="20">Previous: 563 bookings</text>

  <text x="56" y="238" fill="#1E293B" font-family="Segoe UI, Arial, sans-serif" font-size="30" font-weight="700">Daily Trend</text>
  <line x1="84" y1="530" x2="650" y2="530" stroke="#CBD5E1" stroke-width="2"/>
  <line x1="84" y1="470" x2="650" y2="470" stroke="#E2E8F0" stroke-width="2"/>
  <line x1="84" y1="410" x2="650" y2="410" stroke="#E2E8F0" stroke-width="2"/>
  <line x1="84" y1="350" x2="650" y2="350" stroke="#E2E8F0" stroke-width="2"/>
  <path d="M84 520 C110 430, 120 360, 150 402 C180 444, 200 420, 224 392 C250 364, 272 530, 308 410 C340 300, 360 430, 396 390 C430 352, 456 332, 482 508 C508 684, 540 306, 566 402 C590 488, 622 238, 650 448" stroke="#10B981" stroke-width="5" fill="none" stroke-linecap="round"/>
  <path d="M84 542 C118 530, 156 518, 196 532 C234 544, 278 504, 320 526 C362 548, 406 514, 448 538 C490 562, 534 506, 574 528 C612 550, 632 518, 650 530" stroke="#6366F1" stroke-width="5" fill="none" stroke-linecap="round"/>
  <circle cx="270" cy="238" r="10" fill="#6366F1"/>
  <text x="288" y="244" fill="#64748B" font-family="Segoe UI, Arial, sans-serif" font-size="20">Bookings</text>
  <circle cx="384" cy="238" r="10" fill="#10B981"/>
  <text x="402" y="244" fill="#64748B" font-family="Segoe UI, Arial, sans-serif" font-size="20">Visitors</text>

  <text x="748" y="238" fill="#1E293B" font-family="Segoe UI, Arial, sans-serif" font-size="30" font-weight="700">Company Comparison</text>
  <text x="774" y="318" fill="#64748B" font-family="Segoe UI, Arial, sans-serif" font-size="20">Odeon</text>
  <text x="774" y="378" fill="#64748B" font-family="Segoe UI, Arial, sans-serif" font-size="20">Sky Max</text>
  <text x="774" y="438" fill="#64748B" font-family="Segoe UI, Arial, sans-serif" font-size="20">Bibo</text>
  <text x="774" y="498" fill="#64748B" font-family="Segoe UI, Arial, sans-serif" font-size="20">M.T.S</text>
  <line x1="872" y1="286" x2="872" y2="512" stroke="#E2E8F0" stroke-width="2"/>
  <line x1="1036" y1="286" x2="1036" y2="512" stroke="#E2E8F0" stroke-width="2"/>
  <line x1="1200" y1="286" x2="1200" y2="512" stroke="#E2E8F0" stroke-width="2"/>
  <rect x="836" y="302" width="200" height="18" rx="9" fill="#6366F1"/>
  <rect x="836" y="334" width="474" height="18" rx="9" fill="#10B981"/>
  <rect x="836" y="366" width="560" height="18" rx="9" fill="#EF4444"/>
  <rect x="836" y="398" width="332" height="18" rx="9" fill="#F59E0B"/>
  <rect x="836" y="422" width="470" height="18" rx="9" fill="#06B6D4"/>
  <rect x="836" y="454" width="332" height="18" rx="9" fill="#EC4899"/>
  <rect x="836" y="486" width="338" height="18" rx="9" fill="#8B5CF6"/>

  <text x="56" y="660" fill="#1E293B" font-family="Segoe UI, Arial, sans-serif" font-size="30" font-weight="700">Weekly Trend</text>
  <line x1="84" y1="828" x2="650" y2="828" stroke="#CBD5E1" stroke-width="2"/>
  <path d="M110 812 C180 790, 210 720, 270 610 C328 498, 392 492, 468 494 C536 496, 600 492, 650 490" stroke="#10B981" stroke-width="5" fill="none" stroke-linecap="round"/>
  <circle cx="270" cy="610" r="7" fill="#FFFFFF" stroke="#10B981" stroke-width="4"/>
  <circle cx="462" cy="494" r="7" fill="#FFFFFF" stroke="#10B981" stroke-width="4"/>
  <circle cx="566" cy="496" r="7" fill="#FFFFFF" stroke="#10B981" stroke-width="4"/>
  <circle cx="650" cy="490" r="7" fill="#FFFFFF" stroke="#10B981" stroke-width="4"/>

  <text x="748" y="660" fill="#1E293B" font-family="Segoe UI, Arial, sans-serif" font-size="30" font-weight="700">Nationality Breakdown</text>
  <circle cx="1060" cy="770" r="96" fill="none" stroke="#FBBF24" stroke-width="34" stroke-dasharray="540 50"/>
  <circle cx="1060" cy="770" r="96" fill="none" stroke="#3B82F6" stroke-width="34" stroke-dasharray="24 566" transform="rotate(-90 1060 770)"/>
  <text x="980" y="862" fill="#64748B" font-family="Segoe UI, Arial, sans-serif" font-size="20">Foreigner</text>
  <circle cx="956" cy="855" r="10" fill="#FBBF24"/>
  <text x="1136" y="862" fill="#64748B" font-family="Segoe UI, Arial, sans-serif" font-size="20">Egyptian</text>
  <circle cx="1110" cy="855" r="10" fill="#3B82F6"/>

  <text x="52" y="874" fill="#94A3B8" font-family="Segoe UI, Arial, sans-serif" font-size="18">Sanitized public visualization of private analytics screens, preserving business context without exposing internal data sources.</text>
</svg>